Dip1990


              Vertical Limit [2000] [Dual-Audio] [English+Hindi]_Dip1990


General
Complete name                    : Vertical Limit [2000] [Dual-Audio]
IMDB Rating    				 : 5.5/10   21,431 votes
Format                           : Matroska
File size                        : 2.07 GiB
Duration                         : 2h 4mn
Overall bit rate                 : 2 377 Kbps
Encoded date                     : UTC 2010-09-12 18:58:28
Writing application              : mkvmerge v4.3.0 ('Escape from the Island') built on Sep  5 2010 10:30:51
Writing library                  : libebml v1.0.0 + libmatroska v1.0.0

Video
ID                               : 1
Format                           : AVC
Format/Info                      : Advanced Video Codec
Format profile                   : Main@L3.1
Format settings, CABAC           : Yes
Format settings, ReFrames        : 1 frame
Format settings, GOP             : M=1, N=24
Muxing mode                      : Container profile=Unknown@3.1
Codec ID                         : V_MPEG4/ISO/AVC
Duration                         : 2h 4mn
Bit rate                         : 2 119 Kbps
Width                            : 1 280 pixels
Height                           : 688 pixels
Display aspect ratio             : 1.860
Frame rate                       : 23.976 fps
Color space                      : YUV
Chroma subsampling               : 4:2:0
Bit depth                        : 8 bits
Scan type                        : Progressive
Bits/(Pixel*Frame)               : 0.100
Stream size                      : 1.78 GiB (86%)
Title                            : Vertical Limit
Writing library                  : x264 core 67 r1165M 6841c5e
Encoding settings                : cabac=1 / ref=1 / deblock=1:0:0 / analyse=0x1:0x111 / me=hex / subme=6 / psy_rd=1.0:0.0 / mixed_ref=0 / me_range=16 / chroma_me=1 / trellis=0 / 8x8dct=0 / cqm=0 / deadzone=21,11 / chroma_qp_offset=-2 / threads=3 / nr=0 / decimate=1 / mbaff=0 / bframes=0 / keyint=250 / keyint_min=25 / scenecut=40 / rc=abr / bitrate=2119 / ratetol=1.0 / qcomp=0.60 / qpmin=10 / qpmax=51 / qpstep=4 / ip_ratio=1.40 / aq=1:1.00
Language                         : English

Audio #1
ID                               : 2
Format                           : MPEG Audio
Format version                   : Version 1
Format profile                   : Layer 3
Mode                             : Joint stereo
Mode extension                   : MS Stereo
Muxing mode                      : Header stripping
Codec ID                         : A_MPEG/L3
Codec ID/Hint                    : MP3
Duration                         : 2h 4mn
Bit rate mode                    : Variable
Bit rate                         : 104 Kbps
Minimum bit rate                 : 32.0 Kbps
Channel(s)                       : 2 channels
Sampling rate                    : 48.0 KHz
Stream size                      : 92.7 MiB (4%)
Title                            : Vertical Limit - English
Writing library                  : LAME3.98r
Encoding settings                : -m j -V 6 -q 3 -lowpass 15.6 --vbr-old -b 32
Language                         : English

Audio #2
ID                               : 3
Format                           : MPEG Audio
Format version                   : Version 1
Format profile                   : Layer 3
Mode                             : Joint stereo
Mode extension                   : MS Stereo
Muxing mode                      : Header stripping
Codec ID                         : A_MPEG/L3
Codec ID/Hint                    : MP3
Duration                         : 2h 4mn
Bit rate mode                    : Variable
Bit rate                         : 177 Kbps
Minimum bit rate                 : 32.0 Kbps
Channel(s)                       : 2 channels
Sampling rate                    : 48.0 KHz
Stream size                      : 157 MiB (7%)
Title                            : Vertical Limit - Hindi
Writing library                  : LAME3.98r
Encoding settings                : -m j -V 0 -q 3 -lowpass 19.5 --vbr-old -b 32
Language                         : Hindi


Screens:
 
http://img843.imageshack.us/img843/302/verticallimit2000720pbrn.jpg 
http://img130.imageshack.us/img130/7273/verticallimit2000720pbr.jpg 
http://img837.imageshack.us/img837/7273/verticallimit2000720pbr.jpg 
http://img403.imageshack.us/img403/7273/verticallimit2000720pbr.jpg 
http://img843.imageshack.us/img843/7273/verticallimit2000720pbr.jpg 
http://img837.imageshack.us/img837/3002/verticallimit2000720pbre.jpg

Sample:

